<svg width="100" height="100" viewBox="0 0 100 100" fill="none" xmlns="http://www.w3.org/2000/svg">
  <path d="M50 70C61.0457 70 70 61.0457 70 50V30C70 18.9543 61.0457 10 50 10C38.9543 10 30 18.9543 30 30V50C30 61.0457 38.9543 70 50 70Z" fill="#4A5568"/>
  <path d="M26 50H30C30 63.2548 40.7452 74 54 74V78C38.536 78 26 65.464 26 50Z" fill="#38B2AC"/>
  <path d="M74 50H70C70 63.2548 59.2548 74 46 74V78C61.464 78 74 65.464 74 50Z" fill="#38B2AC"/>
  <rect x="48" y="70" width="4" height="20" fill="#4A5568"/>
  <rect x="40" y="90" width="20" height="4" fill="#4A5568"/>
</svg>